:SAMPLES-PER-SECOND 30
:FULLY-SPECIFIED
:DEGREES
17
root  78.8187 40.4168 -1.82342 -161.5 -86.9841 160.913
RightUpLeg  1.63375 -9.4607 -8.85877
RightLeg  2.72051 -2.11596 3.05108
RightFoot  -1.59313 -0.170689 1.87606
RightToes  5.82063e-011 0 -3.6325e-017
Spine  0.280362 -0.848968 2.07318
Spine1  6.28159 -0.828549 -0.50545
HEad  -2.51714 2.40108 -3.90775
LeftShoulder1  4.31599 -7.62826 -32.7024
LeftArm  -17.8186 17.8796 -13.6008
LeftForeArm  24.6512 -26.1461 -4.29162
LeftHand  -0.244104 0.0205437 5.32207
RightShoulder  3.2142 6.11551 27.3894
RightArm  -11.4903 -7.79883 12.6648
RightForeArm  -5.02837 21.5597 5.10678
RightHand  -0.764551 0.992903 -13.9315
LeftUpLeg  3.01902 5.74241 4.31587
LeftLeg  0.463992 10.062 -4.05031
LeftFoot  -2.22607 0.17273 -2.00646
LeftToes  3.81955e-011 1.3492e-010 1.36421e-011
18
root  78.8332 40.4024 -1.8416 -162.923 -87.0258 162.201
RightUpLeg  1.63768 -9.37157 -8.73749
RightLeg  3.00619 -2.22109 2.98028
RightFoot  -1.87359 -0.177041 1.98659
RightToes  5.82063e-011 0 -3.6325e-017
Spine  0.350637 -0.728738 2.73386
Spine1  6.91829 -0.611128 -0.919831
HEad  -1.81174 2.42866 -4.21305
LeftShoulder1  5.47596 -9.0501 -37.4644
LeftArm  -15.7228 16.8231 -16.0608
LeftForeArm  23.7189 -23.3088 -3.77926
LeftHand  -0.244104 0.0205437 5.32207
RightShoulder  3.89123 7.00807 31.0715
RightArm  -9.27182 -8.45437 16.0058
RightForeArm  0.540635 19.1146 4.97993
RightHand  -0.389379 -0.678264 -9.46007
LeftUpLeg  3.10058 5.94557 4.55663
LeftLeg  0.604185 9.7236 -4.15574
LeftFoot  -2.3756 0.175602 -2.05876
LeftToes  3.81955e-011 1.3492e-010 1.36421e-011
19
root  78.8416 40.3779 -1.89655 -163.171 -87.1967 162.446
RightUpLeg  1.35216 -9.14254 -8.46749
RightLeg  3.68292 -2.61632 2.74468
RightFoot  -2.61306 -0.182303 2.15551
RightToes  5.82063e-011 0 -3.6325e-017
Spine  0.0732701 -0.654478 2.91503
Spine1  7.92278 -0.592576 -0.728444
HEad  -1.52445 2.23078 -4.63678
LeftShoulder1  6.69192 -10.3118 -42.0478
LeftArm  -13.9222 15.5443 -18.6142
LeftForeArm  21.7736 -19.8359 -3.53345
LeftHand  -0.244104 0.0205437 5.32207
RightShoulder  4.5493 7.74926 34.4743
RightArm  -10.0345 -8.96177 19.5949
RightForeArm  5.73546 16.1381 5.12313
RightHand  -0.136028 -2.27499 -4.81468
LeftUpLeg  2.87498 6.26148 4.90613
LeftLeg  1.13936 9.04696 -4.28272
LeftFoot  -2.79018 0.184098 -2.23965
LeftToes  3.81955e-011 1.3492e-010 1.36421e-011
20
root  78.841 40.3309 -1.98377 -162.961 -87.2321 162.215
RightUpLeg  0.738897 -8.95882 -8.14691
RightLeg  5.07653 -2.85697 2.32874
RightFoot  -3.87934 -0.174443 2.26881
RightToes  5.82063e-011 0 -3.6325e-017
Spine  -0.15892 -0.603767 2.83824
Spine1  8.92829 -0.652956 -0.351409
HEad  -1.47499 2.25142 -4.89709
LeftShoulder1  7.7276 -11.2442 -45.6889
LeftArm  -13.0497 14.6432 -21.8347
LeftForeArm  20.6238 -16.9047 -3.77955
LeftHand  -0.244104 0.0205437 5.32207
RightShoulder  5.19532 8.41261 37.5703
RightArm  -12.6956 -9.60287 23.286
RightForeArm  8.6702 13.4731 5.17098
RightHand  -0.0554096 -3.31376 -2.33751
LeftUpLeg  2.53418 6.58801 5.24251
LeftLeg  2.07465 8.40401 -4.34598
LeftFoot  -3.55655 0.203886 -2.68631
LeftToes  3.81955e-011 1.3492e-010 1.36421e-011
21
root  78.8225 40.2646 -2.09847 -162.181 -87.1333 161.175
RightUpLeg  0.15476 -9.14308 -7.89008
RightLeg  6.98883 -2.61717 1.7974
RightFoot  -5.43299 -0.154594 2.27765
RightToes  5.82063e-011 0 -3.6325e-017
Spine  0.272018 -0.656083 2.61645
Spine1  9.3463 -0.79624 -0.0351146
HEad  -1.4613 2.80354 -5.00532
LeftShoulder1  8.41656 -11.7727 -48.0926
LeftArm  -12.9868 14.4496 -26.1929
LeftForeArm  21.6465 -14.8719 -4.0511
LeftHand  -0.244104 0.0205437 5.32207
RightShoulder  5.77756 8.94802 40.2503
RightArm  -14.4927 -10.5031 27.2021
RightForeArm  11.1477 11.6212 4.9974
RightHand  -0.0452183 -3.52699 -1.70263
LeftUpLeg  2.44944 6.7796 5.46498
LeftLeg  3.07458 8.0847 -4.24587
LeftFoot  -4.39439 0.22466 -3.26504
LeftToes  3.81955e-011 1.3492e-010 1.36421e-011
22
root  78.7702 40.2081 -2.25525 -160.68 -87.1342 159.131
RightUpLeg  0.090464 -9.40388 -7.647
RightLeg  8.65365 -2.35803 1.28226
RightFoot  -6.90322 -0.13162 2.18361
RightToes  5.82063e-011 0 -3.6325e-017
Spine  1.3426 -0.870039 2.0501
Spine1  9.29641 -1.19131 0.673751
HEad  -1.75417 3.53375 -5.43753
LeftShoulder1  8.88117 -12.0232 -49.9278
LeftArm  -13.9591 14.764 -30.604
LeftForeArm  22.8127 -13.6208 -4.08511
LeftHand  -0.244104 0.0205437 5.32207
RightShoulder  6.19339 9.28374 42.1598
RightArm  -14.5874 -11.728 31.3461
RightForeArm  11.0304 10.5763 5.13348
RightHand  -0.0442402 -3.67566 -1.95597
LeftUpLeg  2.83774 6.81165 5.64414
LeftLeg  3.75893 7.98677 -3.98084
LeftFoot  -5.01282 0.233918 -3.68408
LeftToes  3.81955e-011 1.3492e-010 1.36421e-011
23
root  78.6599 40.174 -2.46691 -159.551 -87.2011 157.392
RightUpLeg  0.502439 -9.39536 -7.32934
RightLeg  9.72504 -2.34907 0.891112
RightFoot  -8.20748 -0.11039 1.99568
RightToes  5.82063e-011 0 -3.6325e-017
Spine  2.0886 -1.04931 1.4011
Spine1  9.68753 -1.60858 1.56838
HEad  -2.26858 3.84966 -6.1062
LeftShoulder1  9.28199 -12.2763 -51.3276
LeftArm  -15.3478 15.185 -33.1003
LeftForeArm  21.0086 -13.3442 -3.96647
LeftHand  -0.244104 0.0205437 5.32207
RightShoulder  6.3858 9.34779 43.3211
RightArm  -14.4703 -13.3158 34.7045
RightForeArm  1.98074 10.5207 5.89055
RightHand  -0.0817805 -4.0219 -4.69664
LeftUpLeg  3.54361 6.79651 5.90118
LeftLeg  4.10213 7.87791 -3.66341
LeftFoot  -5.48522 0.236831 -3.98673
LeftToes  3.81955e-011 1.3492e-010 1.36421e-011
24
root  78.4773 40.1452 -2.7165 -160.851 -87.0118 158.343
RightUpLeg  0.876943 -9.23958 -6.93726
RightLeg  10.4375 -2.20513 0.667604
RightFoot  -9.40841 -0.0941848 1.80441
RightToes  5.82063e-011 0 -3.6325e-017
Spine  1.75585 -1.09664 1.21967
Spine1  10.8932 -1.79219 1.99256
HEad  -2.44596 4.04896 -6.75201
LeftShoulder1  9.47909 -12.4716 -51.7686
LeftArm  -15.5981 15.5212 -32.8435
LeftForeArm  17.4454 -14.2444 -3.97368
LeftHand  -0.244104 0.0205437 5.32207
RightShoulder  6.40876 9.27572 43.7422
RightArm  -14.9762 -14.9687 35.9974
RightForeArm  -12.4542 11.632 6.71171
RightHand  -0.283068 -2.51444 -10.6602
LeftUpLeg  4.20214 6.84843 6.25055
LeftLeg  4.29627 7.82853 -3.40109
LeftFoot  -5.91465 0.246846 -4.4594
LeftToes  3.81955e-011 1.3492e-010 1.36421e-011
25
root  78.2383 40.1069 -2.981 -163.968 -86.4429 161.467
RightUpLeg  0.926789 -9.12989 -6.55055
RightLeg  11.049 -1.67733 0.596513
RightFoot  -10.3953 -0.0845691 1.71694
RightToes  5.82063e-011 0 -3.6325e-017
Spine  0.679351 -1.123 1.62075
Spine1  12.2474 -1.78365 1.73939
HEad  -2.07355 4.70885 -7.36802
LeftShoulder1  9.32749 -12.4154 -51.1305
LeftArm  -13.7576 15.5945 -30.8178
LeftForeArm  16.4601 -15.5364 -4.16893
LeftHand  -0.244104 0.0205437 5.32207
RightShoulder  6.35163 9.24771 43.4313
RightArm  -14.7104 -16.0099 34.9984
RightForeArm  -16.9637 12.7622 6.84962
RightHand  -0.601958 -0.306806 -13.9738
LeftUpLeg  4.59795 6.99002 6.62147
LeftLeg  4.53789 8.11498 -3.18012
LeftFoot  -6.25809 0.26192 -5.05053
LeftToes  3.81955e-011 1.3492e-010 1.36421e-011
26
root  77.9687 40.0597 -3.2618 -167.029 -85.6923 164.636
RightUpLeg  0.90322 -9.05441 -6.1757
RightLeg  11.5815 -0.92409 0.635464
RightFoot  -10.9925 -0.0793978 1.61369
RightToes  5.82063e-011 0 -3.6325e-017
Spine  -0.0883367 -1.18788 2.26553
Spine1  12.8105 -1.71862 1.21305
HEad  -0.762855 5.83272 -7.81763
LeftShoulder1  9.02933 -12.2043 -50.1749
LeftArm  -10.6825 15.4111 -28.3108
LeftForeArm  19.2207 -16.2084 -4.36204
LeftHand  -0.244104 0.0205437 5.32207
RightShoulder  6.27634 9.28073 42.769
RightArm  -12.1558 -15.8898 32.5975
RightForeArm  -6.55338 12.1923 6.60249
RightHand  -0.432026 -1.00396 -11.1845
LeftUpLeg  4.85269 7.23794 7.02498
LeftLeg  5.04101 8.61266 -2.87174
LeftFoot  -6.74264 0.264417 -5.57474
LeftToes  3.81955e-011 1.3492e-010 1.36421e-011
27
root  77.673 39.9863 -3.5626 -170.844 -84.9431 168.403
RightUpLeg  1.04581 -9.01326 -5.72435
RightLeg  12.2026 -0.055799 0.799102
RightFoot  -11.4106 -0.0767219 1.26077
RightToes  5.82063e-011 0 -3.6325e-017
Spine  -0.356833 -1.27691 3.05751
Spine1  12.9337 -1.66668 0.800452
HEad  1.20684 7.00412 -8.07744
LeftShoulder1  8.84072 -12.0634 -49.5746
LeftArm  -8.69157 15.0485 -25.8355
LeftForeArm  22.3982 -16.0241 -4.49177
LeftHand  -0.244104 0.0205437 5.32207
RightShoulder  6.26545 9.41382 42.2213
RightArm  -7.79125 -14.6331 29.9513
RightForeArm  6.93057 10.1148 6.73827
RightHand  -0.213344 -2.14602 -7.47804
LeftUpLeg  5.01555 7.84408 7.57155
LeftLeg  6.26826 8.59188 -2.23268
LeftFoot  -7.83275 0.239923 -6.33376
LeftToes  3.81955e-011 1.3492e-010 1.36421e-011
28
root  77.3572 39.8487 -3.85475 -175.601 -84.2571 173.127
RightUpLeg  1.01471 -9.20012 -5.18619
RightLeg  13.3443 0.971503 1.13597
RightFoot  -12.2136 -0.0767504 0.805369
RightToes  5.82063e-011 0 -3.6325e-017
Spine  -0.580944 -1.33751 4.22692
Spine1  13.1688 -1.56319 0.493379
HEad  2.49584 7.75276 -8.59036
LeftShoulder1  8.77063 -12.0506 -49.2219
LeftArm  -8.14889 14.5834 -23.7227
LeftForeArm  24.2585 -15.2669 -4.63841
LeftHand  -0.244104 0.0205437 5.32207
RightShoulder  6.3079 9.60438 41.8661
RightArm  -3.71182 -13.0844 27.6486
RightForeArm  12.0462 8.02542 7.46069
RightHand  -0.149557 -2.96948 -6.66751
LeftUpLeg  4.41132 9.40842 8.13787
LeftLeg  9.04734 7.44069 -0.817853
LeftFoot  -9.43619 0.180597 -7.48622
LeftToes  3.81955e-011 1.3492e-010 1.36421e-011
29
root  77.0528 39.6507 -4.10315 179.462 -83.9556 178.286
RightUpLeg  0.599492 -9.70437 -4.57208
RightLeg  14.9393 1.82735 1.54067
RightFoot  -13.5715 -0.0770662 0.729481
RightToes  5.82063e-011 0 -3.6325e-017
Spine  -0.414501 -1.42873 5.67608
Spine1  12.833 -1.49433 0.384782
HEad  3.74359 8.24568 -9.16184
LeftShoulder1  8.70343 -12.0543 -48.8325
LeftArm  -8.62291 14.1788 -22.3169
LeftForeArm  24.8794 -14.4438 -4.71458
LeftHand  -0.244104 0.0205437 5.32207
RightShoulder  6.26838 9.65006 41.4278
RightArm  -1.61997 -12.1564 25.7235
RightForeArm  11.3369 7.00389 8.03559
RightHand  -0.106748 -3.95676 -7.34187
LeftUpLeg  2.09895 10.8315 8.34
LeftLeg  14.1951 6.67857 1.62849
LeftFoot  -10.7768 0.105432 -8.04134
LeftToes  3.81955e-011 1.3492e-010 1.36421e-011
30
root  76.7792 39.4476 -4.30454 174.551 -84.4221 -176.509
RightUpLeg  0.209067 -10.3389 -3.94959
RightLeg  16.4845 1.98974 1.74674
RightFoot  -15.0716 -0.066592 1.08406
RightToes  5.82063e-011 0 -3.6325e-017
Spine  0.45 -1.64436 6.85323
Spine1  11.865 -1.63933 0.647041
HEad  5.15202 8.4825 -9.54831
LeftShoulder1  8.66967 -12.0895 -48.532
LeftArm  -9.77581 13.7257 -21.8157
LeftForeArm  24.8678 -14.0647 -4.58489
LeftHand  -0.244104 0.0205437 5.32207
RightShoulder  6.12016 9.50518 40.8571
RightArm  -1.45159 -11.8264 24.1268
RightForeArm  9.83534 7.06543 8.13185
RightHand  -0.120372 -3.9283 -8.30953
LeftUpLeg  -1.9064 8.51451 8.002
LeftLeg  21.7721 9.48367 4.58021
LeftFoot  -11.3329 0.0680299 -6.89191
LeftToes  3.81955e-011 1.3492e-010 1.36421e-011
31
root  76.4901 39.3014 -4.47957 169.681 -85.5393 -171.609
RightUpLeg  0.427228 -10.8816 -3.5292
RightLeg  17.5101 1.40841 1.66932
RightFoot  -16.2166 -0.0551721 1.29109
RightToes  5.82063e-011 0 -3.6325e-017
Spine  1.26887 -1.99082 7.47512
Spine1  11.6825 -2.01256 1.09983
HEad  5.74432 8.25311 -9.78263
LeftShoulder1  8.69904 -12.1549 -48.4932
LeftArm  -11.7311 13.0166 -22.1047
LeftForeArm  23.7046 -14.652 -4.18543
LeftHand  -0.244104 0.0205437 5.32207
RightShoulder  6.06321 9.51113 40.4252
RightArm  -2.28296 -11.4115 22.895
RightForeArm  7.03737 7.29036 8.08945
RightHand  -0.247294 -2.64655 -9.96196
LeftUpLeg  -6.43236 5.56632 7.35278
LeftLeg  30.1286 11.4477 7.39275
LeftFoot  -11.4016 0.0658343 -4.7596
LeftToes  3.81955e-011 1.3492e-010 1.36421e-011
